<svg width="24" height="24" viewBox="0 0 24 24" fill="none" xmlns="http://www.w3.org/2000/svg">
<path d="M2 2.5H1.5V3V21V21.5H2H4H4.5V21L4.5 20.5H5H7H7.5V20V19.5H8.5V20V20.5H9H11H11.5V20V19.5H19H19.5V21V21.5H20H22H22.5V21V3V2.5H22H20H19.5V3V4.5H19H17.5V4V3.5H17H15H14.5V4V4.5H7.5V4V3.5H7H5H4.5L4.5 3V2.5H4H2ZM4.5 13.5H5H6.5V14V14.5H7H9H9.5V14V13.5H10.5V14V14.5H11H13H13.5V14V13.5H16.5V14V14.5H17H19H19.5V16.5H19H11.5V16V15.5H11H9H8.5V16V16.5H7.5V16V15.5H7H5H4.5V13.5ZM16.5 10V10.5H13.5V10V9.5H13H11H10.5V10V10.5H9.5V10V9.5H9H7H6.5V10V10.5H5H4.5V8.5H5H7H7.5V8V7.5H14.5V8V8.5H15H17H17.5V8V7.5H19H19.5V9.5H19H17H16.5V10Z" fill="#FECD00" stroke="black"/>
</svg>
