<svg width="24" height="24" viewBox="0 0 24 24" fill="none" xmlns="http://www.w3.org/2000/svg">
<g clip-path="url(#clip0)">
<path d="M16.4412 8.4706V8.9706H16.9412H22.5882C22.8301 8.9706 23.062 9.06666 23.233 9.23765C23.4039 9.40864 23.5 9.64055 23.5 9.88236V15.5294C23.5 15.7712 23.4039 16.0031 23.233 16.1741C23.062 16.3451 22.8301 16.4412 22.5882 16.4412H16.9412H16.4412V16.9412V22.5882C16.4412 22.8301 16.3451 23.062 16.1741 23.233C16.0031 23.4039 15.7712 23.5 15.5294 23.5H9.88235C9.64054 23.5 9.40863 23.4039 9.23764 23.233C9.06665 23.062 8.97059 22.8301 8.97059 22.5882V16.9412V16.4412H8.47059H2.82353C2.58172 16.4412 2.3498 16.3451 2.17882 16.1741C2.00783 16.0031 1.91177 15.7712 1.91177 15.5294V9.88236C1.91177 9.64055 2.00783 9.40864 2.17882 9.23765C2.3498 9.06666 2.58172 8.9706 2.82353 8.9706H8.47059H8.97059V8.4706V2.82354C8.97059 2.58172 9.06665 2.34981 9.23764 2.17882C9.40863 2.00783 9.64054 1.91177 9.88235 1.91177H15.5294C15.7712 1.91177 16.0031 2.00783 16.1741 2.17882C16.3451 2.34981 16.4412 2.58172 16.4412 2.82354V8.4706Z" fill="#FECD00" stroke="black"/>
</g>
<defs>
<clipPath id="clip0">
<rect width="24" height="24" fill="white"/>
</clipPath>
</defs>
</svg>
