<svg width="24" height="24" viewBox="0 0 24 24" fill="none" xmlns="http://www.w3.org/2000/svg">
<path d="M9.85632 18.5C11.5348 18.5028 13.1743 18.0147 14.5747 17.1007L19.737 22.263L19.746 22.2719L19.7554 22.2804L19.8531 22.3687L19.8613 22.3762L19.8699 22.3832C20.2246 22.6762 20.6787 22.8209 21.1375 22.7873C21.5963 22.7537 22.0245 22.5443 22.3327 22.2028C22.6409 21.8612 22.8054 21.4139 22.7919 20.9541C22.7785 20.4949 22.5886 20.0586 22.2618 19.7358C22.2613 19.7354 22.2608 19.7349 22.2604 19.7344L17.1005 14.5745C17.9851 13.2177 18.5 11.5972 18.5 9.85714C18.5 7.56492 17.5894 5.36657 15.9686 3.74572C14.3477 2.12487 12.1494 1.21429 9.85714 1.21429C7.56492 1.21429 5.36657 2.12487 3.74572 3.74572C2.12487 5.36657 1.21429 7.56492 1.21429 9.85714C1.21429 12.1494 2.12487 14.3477 3.74572 15.9686C5.36638 17.5892 7.56439 18.4998 9.85632 18.5ZM9.85632 18.5L9.85714 18.0003V18.5C9.85687 18.5 9.8566 18.5 9.85632 18.5ZM6.2711 6.2711C7.22218 5.32002 8.51212 4.78572 9.85714 4.78572C11.2022 4.78572 12.4921 5.32002 13.4432 6.2711C14.3943 7.22218 14.9286 8.51212 14.9286 9.85714C14.9286 11.2022 14.3943 12.4921 13.4432 13.4432C12.4921 14.3943 11.2022 14.9286 9.85714 14.9286C8.51212 14.9286 7.22218 14.3943 6.2711 13.4432C5.32002 12.4921 4.78572 11.2022 4.78572 9.85714C4.78572 8.51212 5.32002 7.22218 6.2711 6.2711Z" fill="#FECD00" stroke="black"/>
</svg>
